<svg version="1.1" id="Layer_1" xmlns="http://www.w3.org/2000/svg" xmlns:xlink="http://www.w3.org/1999/xlink" x="0px" y="0px"
	 width="100%" viewBox="0 0 1473 1458" enable-background="new 0 0 1473 1458" xml:space="preserve">
<path fill="#000000" opacity="1.000000" stroke="none" 
	d="
M1474.000000,559.000000 
	C1474.000000,859.307800 1474.000000,1159.115601 1474.000000,1458.961670 
	C983.067322,1458.961670 492.134613,1458.961670 1.100968,1458.961670 
	C1.100968,973.108704 1.100968,487.217377 1.100968,1.163018 
	C491.999969,1.163018 983.000000,1.163018 1474.000000,1.163018 
	C1474.000000,186.865692 1474.000000,372.682861 1474.000000,559.000000 
M317.552124,1166.168457 
	C347.498413,1166.168457 377.444702,1166.168457 407.836121,1166.168457 
	C407.836121,1037.767578 407.836121,909.852173 407.836121,781.363159 
	C471.333282,781.363159 534.385315,781.363159 597.494995,781.363159 
	C597.494995,687.341919 597.494995,593.895508 597.494995,500.237366 
	C439.924225,500.237366 282.562531,500.237366 125.384979,500.237366 
	C125.384979,784.598022 125.384979,1068.647827 125.384979,1352.617432 
	C282.885040,1352.617432 439.997467,1352.617432 597.737305,1352.617432 
	C597.737305,1252.854004 597.737305,1153.309448 597.737305,1053.766724 
	C690.307068,1053.766724 782.248901,1053.766724 874.396240,1053.766724 
	C874.396240,1121.090820 874.396240,1188.155762 874.396240,1255.460449 
	C842.844727,1255.460449 811.595886,1255.460449 779.770569,1255.460449 
	C779.770569,1219.194336 779.770569,1183.139282 779.770569,1147.021851 
	C747.252502,1147.021851 715.311096,1147.021851 683.165955,1147.021851 
	C683.165955,1215.619751 683.165955,1284.020264 683.165955,1352.554077 
	C779.294922,1352.554077 875.180481,1352.554077 971.149780,1352.554077 
	C971.149780,1220.369141 971.149780,1088.467896 971.149780,956.652405 
	C814.221802,956.652405 657.652771,956.652405 500.658813,956.652405 
	C500.658813,1056.428833 500.658813,1155.850952 500.658813,1255.319458 
	C407.534302,1255.319458 314.835846,1255.319458 222.234955,1255.319458 
	C222.234955,1035.697021 222.234955,816.453674 222.234955,597.390747 
	C315.259735,597.390747 407.977142,597.390747 500.500427,597.390747 
	C500.500427,626.533691 500.500427,655.286438 500.500427,684.426575 
	C437.233063,684.426575 374.294647,684.426575 311.300415,684.426575 
	C311.300415,845.219116 311.300415,1005.620056 311.300415,1166.168457 
	C313.258118,1166.168457 314.913147,1166.168457 317.552124,1166.168457 
M1003.500000,499.927948 
	C958.737366,499.927948 913.974731,499.927948 869.208374,499.927948 
	C869.208374,594.035095 869.208374,687.594604 869.208374,781.689270 
	C932.711670,781.689270 995.934753,781.689270 1059.601929,781.689270 
	C1059.601929,972.301147 1059.601929,1162.377808 1059.601929,1352.611084 
	C1154.292847,1352.611084 1248.535645,1352.611084 1343.041016,1352.611084 
	C1343.041016,1068.357910 1343.041016,784.332703 1343.041016,499.927948 
	C1230.067017,499.927948 1117.283447,499.927948 1003.500000,499.927948 
M688.073242,309.379974 
	C686.720459,300.337677 685.872681,291.185333 683.930542,282.271423 
	C673.596741,234.842453 653.042114,192.646133 619.306580,157.253265 
	C591.301941,127.872772 557.593994,107.621712 519.441589,94.437431 
	C465.666656,75.854492 413.037842,78.146286 363.539185,106.903404 
	C312.844208,136.355515 284.011536,181.418884 279.476685,240.055023 
	C275.437042,292.287933 295.118622,335.897919 334.488373,370.093384 
	C382.614380,411.894379 439.349274,430.552765 502.682892,429.021637 
	C554.454773,427.770020 606.202759,425.523102 657.960571,423.696442 
	C668.253113,423.333191 678.542358,422.874573 689.290039,422.441528 
	C689.290039,420.451508 689.289978,418.824860 689.290100,417.198242 
	C689.291687,392.708008 689.409668,368.216949 689.242859,343.727875 
	C689.166931,332.581207 688.528076,321.438354 688.073242,309.379974 
M791.927063,412.462158 
	C791.927063,415.722870 791.927063,418.983582 791.927063,422.469025 
	C794.856384,422.611786 797.164612,422.749664 799.474854,422.833038 
	C844.574951,424.460754 889.668335,426.331268 934.778442,427.605469 
	C959.391846,428.300720 984.141174,429.517212 1008.640381,427.801788 
	C1058.777100,424.291138 1103.809204,406.223755 1142.388916,373.839294 
	C1191.739624,332.413452 1212.005615,279.534851 1198.211304,216.163437 
	C1179.895874,132.022705 1100.468018,72.154755 1001.630066,84.481415 
	C975.241821,87.772453 950.452881,96.739868 927.274170,109.111336 
	C840.121948,155.628189 797.574951,230.436127 792.229675,327.518402 
	C790.693237,355.423798 791.950623,383.483002 791.927063,412.462158 
M785.492249,672.500366 
	C785.492249,615.095825 785.492249,557.691284 785.492249,500.152222 
	C751.093811,500.152222 717.192871,500.152222 683.160278,500.152222 
	C683.160278,621.893982 683.160278,743.410095 683.160278,865.033936 
	C717.286072,865.033936 751.176086,865.033936 785.492310,865.033936 
	C785.492310,801.014343 785.492310,737.257385 785.492249,672.500366 
z"/>
<path fill="#FBFEF5" opacity="1.000000" stroke="none" 
	d="
M317.060120,1166.168457 
	C314.913147,1166.168457 313.258118,1166.168457 311.300415,1166.168457 
	C311.300415,1005.620056 311.300415,845.219116 311.300415,684.426575 
	C374.294647,684.426575 437.233063,684.426575 500.500427,684.426575 
	C500.500427,655.286438 500.500427,626.533691 500.500427,597.390747 
	C407.977142,597.390747 315.259735,597.390747 222.234955,597.390747 
	C222.234955,816.453674 222.234955,1035.697021 222.234955,1255.319458 
	C314.835846,1255.319458 407.534302,1255.319458 500.658813,1255.319458 
	C500.658813,1155.850952 500.658813,1056.428833 500.658813,956.652405 
	C657.652771,956.652405 814.221802,956.652405 971.149780,956.652405 
	C971.149780,1088.467896 971.149780,1220.369141 971.149780,1352.554077 
	C875.180481,1352.554077 779.294922,1352.554077 683.165955,1352.554077 
	C683.165955,1284.020264 683.165955,1215.619751 683.165955,1147.021851 
	C715.311096,1147.021851 747.252502,1147.021851 779.770569,1147.021851 
	C779.770569,1183.139282 779.770569,1219.194336 779.770569,1255.460449 
	C811.595886,1255.460449 842.844727,1255.460449 874.396240,1255.460449 
	C874.396240,1188.155762 874.396240,1121.090820 874.396240,1053.766724 
	C782.248901,1053.766724 690.307068,1053.766724 597.737305,1053.766724 
	C597.737305,1153.309448 597.737305,1252.854004 597.737305,1352.617432 
	C439.997467,1352.617432 282.885040,1352.617432 125.384979,1352.617432 
	C125.384979,1068.647827 125.384979,784.598022 125.384979,500.237366 
	C282.562531,500.237366 439.924225,500.237366 597.494995,500.237366 
	C597.494995,593.895508 597.494995,687.341919 597.494995,781.363159 
	C534.385315,781.363159 471.333282,781.363159 407.836121,781.363159 
	C407.836121,909.852173 407.836121,1037.767578 407.836121,1166.168457 
	C377.444702,1166.168457 347.498413,1166.168457 317.060120,1166.168457 
z"/>
<path fill="#FBFEF5" opacity="1.000000" stroke="none" 
	d="
M1004.000000,499.927948 
	C1117.283447,499.927948 1230.067017,499.927948 1343.041016,499.927948 
	C1343.041016,784.332703 1343.041016,1068.357910 1343.041016,1352.611084 
	C1248.535645,1352.611084 1154.292847,1352.611084 1059.601929,1352.611084 
	C1059.601929,1162.377808 1059.601929,972.301147 1059.601929,781.689270 
	C995.934753,781.689270 932.711670,781.689270 869.208374,781.689270 
	C869.208374,687.594604 869.208374,594.035095 869.208374,499.927948 
	C913.974731,499.927948 958.737366,499.927948 1004.000000,499.927948 
M1246.069580,1094.500000 
	C1246.069580,928.769592 1246.069580,763.039185 1246.069580,597.262085 
	C1152.506958,597.262085 1059.453979,597.262085 966.448059,597.262085 
	C966.448059,626.386292 966.448059,655.248657 966.448059,684.564880 
	C1030.065186,684.564880 1093.307129,684.564880 1156.924316,684.564880 
	C1156.924316,875.084473 1156.924316,1065.147095 1156.924316,1255.318848 
	C1186.823486,1255.318848 1216.342285,1255.318848 1246.069580,1255.318848 
	C1246.069580,1201.793701 1246.069580,1148.646851 1246.069580,1094.500000 
z"/>
<path fill="#FBFEF5" opacity="1.000000" stroke="none" 
	d="
M688.108887,309.836884 
	C688.528076,321.438354 689.166931,332.581207 689.242859,343.727875 
	C689.409668,368.216949 689.291687,392.708008 689.290100,417.198242 
	C689.289978,418.824860 689.290039,420.451508 689.290039,422.441528 
	C678.542358,422.874573 668.253113,423.333191 657.960571,423.696442 
	C606.202759,425.523102 554.454773,427.770020 502.682892,429.021637 
	C439.349274,430.552765 382.614380,411.894379 334.488373,370.093384 
	C295.118622,335.897919 275.437042,292.287933 279.476685,240.055023 
	C284.011536,181.418884 312.844208,136.355515 363.539185,106.903404 
	C413.037842,78.146286 465.666656,75.854492 519.441589,94.437431 
	C557.593994,107.621712 591.301941,127.872772 619.306580,157.253265 
	C653.042114,192.646133 673.596741,234.842453 683.930542,282.271423 
	C685.872681,291.185333 686.720459,300.337677 688.108887,309.836884 
M453.256531,326.237335 
	C466.214722,328.158569 479.158783,331.563690 492.134125,331.687378 
	C517.921448,331.933228 543.724548,330.320709 569.524414,329.589996 
	C576.962708,329.379303 584.411987,329.557648 592.074280,329.557648 
	C592.074280,327.477814 592.130066,326.663208 592.064697,325.858490 
	C591.754944,322.045105 591.586182,318.209839 591.053894,314.426483 
	C586.071411,279.012268 572.215820,247.809372 546.951965,222.079346 
	C527.791687,202.565536 504.278961,190.017441 478.256378,183.402954 
	C446.490845,175.328720 416.814209,180.317093 393.716492,205.932007 
	C370.539276,231.635086 367.123749,271.095367 399.184845,297.837738 
	C415.000824,311.029999 432.733704,320.369751 453.256531,326.237335 
z"/>
<path fill="#FBFEF6" opacity="1.000000" stroke="none" 
	d="
M791.927063,411.966919 
	C791.950623,383.483002 790.693237,355.423798 792.229675,327.518402 
	C797.574951,230.436127 840.121948,155.628189 927.274170,109.111336 
	C950.452881,96.739868 975.241821,87.772453 1001.630066,84.481415 
	C1100.468018,72.154755 1179.895874,132.022705 1198.211304,216.163437 
	C1212.005615,279.534851 1191.739624,332.413452 1142.388916,373.839294 
	C1103.809204,406.223755 1058.777100,424.291138 1008.640381,427.801788 
	C984.141174,429.517212 959.391846,428.300720 934.778442,427.605469 
	C889.668335,426.331268 844.574951,424.460754 799.474854,422.833038 
	C797.164612,422.749664 794.856384,422.611786 791.927063,422.469025 
	C791.927063,418.983582 791.927063,415.722870 791.927063,411.966919 
M960.216736,201.695816 
	C913.865173,231.272781 893.361633,275.241150 888.479858,329.040161 
	C924.683044,330.006775 959.811218,332.254150 994.875244,331.505219 
	C1028.578491,330.785370 1058.778320,318.413910 1084.308960,295.812958 
	C1106.850342,275.858063 1111.808960,245.446381 1097.023682,219.214401 
	C1080.777588,190.390533 1051.757568,177.513733 1017.538635,180.629608 
	C996.955261,182.503845 978.661621,191.464722 960.216736,201.695816 
z"/>
<path fill="#FCFFF6" opacity="1.000000" stroke="none" 
	d="
M785.492310,673.000366 
	C785.492310,737.257385 785.492310,801.014343 785.492310,865.033936 
	C751.176086,865.033936 717.286072,865.033936 683.160278,865.033936 
	C683.160278,743.410095 683.160278,621.893982 683.160278,500.152222 
	C717.192871,500.152222 751.093811,500.152222 785.492249,500.152222 
	C785.492249,557.691284 785.492249,615.095825 785.492310,673.000366 
z"/>
<path fill="#000000" opacity="1.000000" stroke="none" 
	d="
M1246.069580,1095.000000 
	C1246.069580,1148.646851 1246.069580,1201.793701 1246.069580,1255.318848 
	C1216.342285,1255.318848 1186.823486,1255.318848 1156.924316,1255.318848 
	C1156.924316,1065.147095 1156.924316,875.084473 1156.924316,684.564880 
	C1093.307129,684.564880 1030.065186,684.564880 966.448059,684.564880 
	C966.448059,655.248657 966.448059,626.386292 966.448059,597.262085 
	C1059.453979,597.262085 1152.506958,597.262085 1246.069580,597.262085 
	C1246.069580,763.039185 1246.069580,928.769592 1246.069580,1095.000000 
z"/>
<path fill="#010101" opacity="1.000000" stroke="none" 
	d="
M452.858154,326.151062 
	C432.733704,320.369751 415.000824,311.029999 399.184845,297.837738 
	C367.123749,271.095367 370.539276,231.635086 393.716492,205.932007 
	C416.814209,180.317093 446.490845,175.328720 478.256378,183.402954 
	C504.278961,190.017441 527.791687,202.565536 546.951965,222.079346 
	C572.215820,247.809372 586.071411,279.012268 591.053894,314.426483 
	C591.586182,318.209839 591.754944,322.045105 592.064697,325.858490 
	C592.130066,326.663208 592.074280,327.477814 592.074280,329.557648 
	C584.411987,329.557648 576.962708,329.379303 569.524414,329.589996 
	C543.724548,330.320709 517.921448,331.933228 492.134125,331.687378 
	C479.158783,331.563690 466.214722,328.158569 452.858154,326.151062 
z"/>
<path fill="#010101" opacity="1.000000" stroke="none" 
	d="
M960.514404,201.481598 
	C978.661621,191.464722 996.955261,182.503845 1017.538635,180.629608 
	C1051.757568,177.513733 1080.777588,190.390533 1097.023682,219.214401 
	C1111.808960,245.446381 1106.850342,275.858063 1084.308960,295.812958 
	C1058.778320,318.413910 1028.578491,330.785370 994.875244,331.505219 
	C959.811218,332.254150 924.683044,330.006775 888.479858,329.040161 
	C893.361633,275.241150 913.865173,231.272781 960.514404,201.481598 
z"/>
</svg>